<svg xmlns="http://www.w3.org/2000/svg" width="240" height="64" viewBox="0 0 240 64" fill="none">
  <rect width="64" height="64" rx="14" fill="#0F4C81"/>
  <path d="M16 21.5C16 18.4624 18.4624 16 21.5 16H42.5C45.5376 16 48 18.4624 48 21.5V42.5C48 45.5376 45.5376 48 42.5 48H21.5C18.4624 48 16 45.5376 16 42.5V21.5Z" fill="#0B3C65"/>
  <path d="M27.25 24H38.75C40.5449 24 42 25.4551 42 27.25V28.25H37.5V28C37.5 27.4477 37.0523 27 36.5 27H29.5C28.9477 27 28.5 27.4477 28.5 28V36C28.5 36.5523 28.9477 37 29.5 37H36.5C37.0523 37 37.5 36.5523 37.5 36V35.5H42V36.75C42 38.5449 40.5449 40 38.75 40H27.25C25.4551 40 24 38.5449 24 36.75V27.25C24 25.4551 25.4551 24 27.25 24Z" fill="#E0A100"/>
  <path d="M36.5 31.25C36.5 30.5596 37.0596 30 37.75 30H46.75C47.4404 30 48 30.5596 48 31.25V32.25C48 32.9404 47.4404 33.5 46.75 33.5H37.75C37.0596 33.5 36.5 32.9404 36.5 32.25V31.25Z" fill="#F8D268"/>
  <text x="78" y="29" fill="#0F172A" font-family="Manrope, Segoe UI, sans-serif" font-size="15" font-weight="800" letter-spacing="0.08em">CCSP CIVICOS</text>
  <text x="78" y="48" fill="#0F4C81" font-family="Plus Jakarta Sans, Segoe UI, sans-serif" font-size="13" font-weight="600">Civic Candidate Support Platform</text>
</svg>
